{"title":"Blood Runs Cold 2011 DVDRip Xvid AC3 LKRG","uid":10141171,"size":779599614,"categoryP":"video","categoryS":"movies","magnet":"?xt=urn:btih:a242ee93df6aa50afd8c604c6ed073728b117372&amp;dn=Blood+Runs+Cold+2011+DVDRip+Xvid+AC3+LKRG&amp;tr=udp%3A%2F%2Ftracker.openbittorrent.com%3A80&amp;tr=udp%3A%2F%2Fopen.demonii.com%3A1337&amp;tr=udp%3A%2F%2Ftracker.coppersurfer.tk%3A6969&amp;tr=udp%3A%2F%2Fexodus.desync.com%3A6969","seeders":1,"leechers":0,"uploader":".BONE.","files":2,"time":1399999670,"description":"Runtime ..........: 1h 17mn\nFile Size ........: 743 MiB\nResolution .......: 720 x 304 &lt;a href=&quot;\nhttp://www.imdb.com/title/tt1844633/&quot; rel=&quot;nofollow&quot; target=&quot;_NEW&quot;&gt;\nhttp://www.imdb.com/title/tt1844633/&lt;/a&gt;\nGenre ............: Horror\nLanguage .........: English\nSubtitles ........: None\nFormat : AVI\nFormat/Info : Audio Video Interleave\nFile size : 743 MiB\nDuration : 1h 17mn\nOverall bit rate : 1 342 Kbps\nWriting application : VirtualDubMod 1.5.10.2 (build 2540/release)\nWriting library : VirtualDubMod build 2540/release\nVideo\nID : 0\nFormat : MPEG-4 Visual\nFormat profile : Advanced Simple@L5\nFormat settings, BVOP : 2\nFormat settings, QPel : No\nFormat settings, GMC : No warppoints\nFormat settings, Matrix : Default (H.263)\nMuxing mode : Packed bitstream\nCodec ID : XVID\nCodec ID/Hint : XviD\nDuration : 1h 17mn\nBit rate : 885 Kbps\nWidth : 720 pixels\nHeight : 304 pixels\nDisplay aspect ratio : 2.35:1\nFrame rate : 23.976 fps\nColor space : YUV\nChroma subsampling : 4:2:0\nBit depth : 8 bits\nScan type : Progressive\nCompression mode : Lossy\nBits/(Pixel*Frame) : 0.169\nStream size : 490 MiB (66%)\nWriting library : XviD 1.2.1 (UTC 2008-12-04)\nAudio\nID : 1\nFormat : AC-3\nFormat/Info : Audio Coding 3\nMode extension : CM (complete main)\nFormat settings, Endianness : Big\nCodec ID : 2000\nDuration : 1h 17mn\nBit rate mode : Constant\nBit rate : 448 Kbps\nChannel(s) : 6 channels\nChannel positions : Front: L C R, Side: L R, LFE\nSampling rate : 48.0 KHz\nBit depth : 16 bits\nCompression mode : Lossy\nStream size : 248 MiB (33%)\nAlignment : Split accross interleaves\nInterleave, duration : 42 ms (1.00 video frame)\nInterleave, preload duration : 500 ms\n","torrent":{"xt":"urn:btih:a242ee93df6aa50afd8c604c6ed073728b117372","amp;dn":"Blood+Runs+Cold+2011+DVDRip+Xvid+AC3+LKRG","amp;tr":["udp%3A%2F%2Ftracker.openbittorrent.com%3A80","udp%3A%2F%2Fopen.demonii.com%3A1337","udp%3A%2F%2Ftracker.coppersurfer.tk%3A6969","udp%3A%2F%2Fexodus.desync.com%3A6969"],"infoHash":"a242ee93df6aa50afd8c604c6ed073728b117372","infoHashBuffer":{"type":"Buffer","data":[162,66,238,147,223,106,165,10,253,140,96,76,110,208,115,114,139,17,115,114]},"announce":[],"urlList":[]}}